<mxfile host="app.diagrams.net" modified="2022-10-27T18:03:03.839Z" agent="5.0 (Windows)" etag="2JwyrJxjDs6P66UUTEYP" version="20.5.1" type="github">
  <diagram id="CjiaHMaBVddssaq4kyfS" name="Page-1">
    <mxGraphModel dx="1221" dy="1715" grid="1" gridSize="10" guides="1" tooltips="1" connect="1" arrows="1" fold="1" page="1" pageScale="1" pageWidth="850" pageHeight="1100" math="0" shadow="0">
      <root>
        <mxCell id="0" />
        <mxCell id="1" parent="0" />
        <mxCell id="xf_oXh0y7SjaSMI43Iii-91" style="edgeStyle=orthogonalEdgeStyle;rounded=0;orthogonalLoop=1;jettySize=auto;html=1;fontSize=10;exitX=0.75;exitY=0;exitDx=0;exitDy=0;" edge="1" parent="1" source="xf_oXh0y7SjaSMI43Iii-6" target="xf_oXh0y7SjaSMI43Iii-10">
          <mxGeometry relative="1" as="geometry">
            <Array as="points">
              <mxPoint x="283" y="520" />
              <mxPoint x="283" y="350" />
            </Array>
          </mxGeometry>
        </mxCell>
        <mxCell id="xf_oXh0y7SjaSMI43Iii-92" value="1" style="edgeLabel;html=1;align=center;verticalAlign=middle;resizable=0;points=[];fontSize=10;" vertex="1" connectable="0" parent="xf_oXh0y7SjaSMI43Iii-91">
          <mxGeometry x="0.7216" y="-2" relative="1" as="geometry">
            <mxPoint x="8" y="-7" as="offset" />
          </mxGeometry>
        </mxCell>
        <mxCell id="xf_oXh0y7SjaSMI43Iii-93" value="1..n" style="edgeLabel;html=1;align=center;verticalAlign=bottom;resizable=0;points=[];fontSize=10;" vertex="1" connectable="0" parent="xf_oXh0y7SjaSMI43Iii-91">
          <mxGeometry x="-0.7846" relative="1" as="geometry">
            <mxPoint x="17" y="3" as="offset" />
          </mxGeometry>
        </mxCell>
        <mxCell id="xf_oXh0y7SjaSMI43Iii-94" value="&lt;font style=&quot;font-size: 12px;&quot;&gt;est découvert&amp;nbsp; à&lt;br&gt;&lt;/font&gt;" style="edgeLabel;html=1;align=center;verticalAlign=middle;resizable=0;points=[];fontSize=10;" vertex="1" connectable="0" parent="xf_oXh0y7SjaSMI43Iii-91">
          <mxGeometry x="-0.2907" relative="1" as="geometry">
            <mxPoint x="32" as="offset" />
          </mxGeometry>
        </mxCell>
        <mxCell id="xf_oXh0y7SjaSMI43Iii-6" value="Trouvailles" style="swimlane;fontStyle=0;childLayout=stackLayout;horizontal=1;startSize=30;horizontalStack=0;resizeParent=1;resizeParentMax=0;resizeLast=0;collapsible=1;marginBottom=0;fontSize=14;" vertex="1" parent="1">
          <mxGeometry x="200" y="520" width="140" height="120" as="geometry">
            <mxRectangle x="200" y="520" width="110" height="30" as="alternateBounds" />
          </mxGeometry>
        </mxCell>
        <mxCell id="xf_oXh0y7SjaSMI43Iii-7" value="contexte" style="text;strokeColor=none;fillColor=none;align=left;verticalAlign=middle;spacingLeft=4;spacingRight=4;overflow=hidden;points=[[0,0.5],[1,0.5]];portConstraint=eastwest;rotatable=0;fontSize=14;" vertex="1" parent="xf_oXh0y7SjaSMI43Iii-6">
          <mxGeometry y="30" width="140" height="30" as="geometry" />
        </mxCell>
        <mxCell id="xf_oXh0y7SjaSMI43Iii-8" value="Nature" style="text;strokeColor=none;fillColor=none;align=left;verticalAlign=middle;spacingLeft=4;spacingRight=4;overflow=hidden;points=[[0,0.5],[1,0.5]];portConstraint=eastwest;rotatable=0;fontSize=14;" vertex="1" parent="xf_oXh0y7SjaSMI43Iii-6">
          <mxGeometry y="60" width="140" height="30" as="geometry" />
        </mxCell>
        <mxCell id="xf_oXh0y7SjaSMI43Iii-178" value="date de découverte" style="text;strokeColor=none;fillColor=none;align=left;verticalAlign=middle;spacingLeft=4;spacingRight=4;overflow=hidden;points=[[0,0.5],[1,0.5]];portConstraint=eastwest;rotatable=0;fontSize=14;" vertex="1" parent="xf_oXh0y7SjaSMI43Iii-6">
          <mxGeometry y="90" width="140" height="30" as="geometry" />
        </mxCell>
        <mxCell id="xf_oXh0y7SjaSMI43Iii-10" value="Lieu" style="swimlane;fontStyle=0;childLayout=stackLayout;horizontal=1;startSize=30;horizontalStack=0;resizeParent=1;resizeParentMax=0;resizeLast=0;collapsible=1;marginBottom=0;fontSize=14;" vertex="1" parent="1">
          <mxGeometry x="320" y="240" width="140" height="120" as="geometry" />
        </mxCell>
        <mxCell id="xf_oXh0y7SjaSMI43Iii-11" value="Nom" style="text;strokeColor=none;fillColor=none;align=left;verticalAlign=middle;spacingLeft=4;spacingRight=4;overflow=hidden;points=[[0,0.5],[1,0.5]];portConstraint=eastwest;rotatable=0;fontSize=14;" vertex="1" parent="xf_oXh0y7SjaSMI43Iii-10">
          <mxGeometry y="30" width="140" height="30" as="geometry" />
        </mxCell>
        <mxCell id="xf_oXh0y7SjaSMI43Iii-12" value="définition" style="text;strokeColor=none;fillColor=none;align=left;verticalAlign=middle;spacingLeft=4;spacingRight=4;overflow=hidden;points=[[0,0.5],[1,0.5]];portConstraint=eastwest;rotatable=0;fontSize=14;" vertex="1" parent="xf_oXh0y7SjaSMI43Iii-10">
          <mxGeometry y="60" width="140" height="30" as="geometry" />
        </mxCell>
        <mxCell id="xf_oXh0y7SjaSMI43Iii-13" value="Coordonnées" style="text;strokeColor=none;fillColor=none;align=left;verticalAlign=middle;spacingLeft=4;spacingRight=4;overflow=hidden;points=[[0,0.5],[1,0.5]];portConstraint=eastwest;rotatable=0;fontSize=14;" vertex="1" parent="xf_oXh0y7SjaSMI43Iii-10">
          <mxGeometry y="90" width="140" height="30" as="geometry" />
        </mxCell>
        <mxCell id="xf_oXh0y7SjaSMI43Iii-118" style="edgeStyle=orthogonalEdgeStyle;rounded=0;orthogonalLoop=1;jettySize=auto;html=1;entryX=1;entryY=0.5;entryDx=0;entryDy=0;fontSize=10;" edge="1" parent="1" source="xf_oXh0y7SjaSMI43Iii-15" target="xf_oXh0y7SjaSMI43Iii-6">
          <mxGeometry relative="1" as="geometry">
            <Array as="points">
              <mxPoint x="650" y="580" />
            </Array>
          </mxGeometry>
        </mxCell>
        <mxCell id="xf_oXh0y7SjaSMI43Iii-161" value="trouve" style="edgeLabel;html=1;align=center;verticalAlign=middle;resizable=0;points=[];fontSize=12;" vertex="1" connectable="0" parent="xf_oXh0y7SjaSMI43Iii-118">
          <mxGeometry x="-0.109" y="2" relative="1" as="geometry">
            <mxPoint x="-7" y="-2" as="offset" />
          </mxGeometry>
        </mxCell>
        <mxCell id="xf_oXh0y7SjaSMI43Iii-174" value="1..n" style="edgeLabel;html=1;align=center;verticalAlign=middle;resizable=0;points=[];fontSize=12;" vertex="1" connectable="0" parent="xf_oXh0y7SjaSMI43Iii-118">
          <mxGeometry x="-0.9578" relative="1" as="geometry">
            <mxPoint x="10" as="offset" />
          </mxGeometry>
        </mxCell>
        <mxCell id="xf_oXh0y7SjaSMI43Iii-175" value="1" style="edgeLabel;html=1;align=center;verticalAlign=bottom;resizable=0;points=[];fontSize=12;" vertex="1" connectable="0" parent="xf_oXh0y7SjaSMI43Iii-118">
          <mxGeometry x="0.9503" y="1" relative="1" as="geometry">
            <mxPoint as="offset" />
          </mxGeometry>
        </mxCell>
        <mxCell id="xf_oXh0y7SjaSMI43Iii-120" style="edgeStyle=orthogonalEdgeStyle;rounded=0;orthogonalLoop=1;jettySize=auto;html=1;entryX=0.75;entryY=0;entryDx=0;entryDy=0;fontSize=14;" edge="1" parent="1" source="xf_oXh0y7SjaSMI43Iii-15" target="xf_oXh0y7SjaSMI43Iii-107">
          <mxGeometry relative="1" as="geometry">
            <Array as="points">
              <mxPoint x="575" y="320" />
            </Array>
          </mxGeometry>
        </mxCell>
        <mxCell id="xf_oXh0y7SjaSMI43Iii-159" value="&lt;div&gt;fait &lt;br&gt;&lt;/div&gt;&lt;div&gt;partie de&lt;br&gt;&lt;/div&gt;" style="edgeLabel;html=1;align=center;verticalAlign=middle;resizable=0;points=[];fontSize=12;" vertex="1" connectable="0" parent="xf_oXh0y7SjaSMI43Iii-120">
          <mxGeometry x="-0.1877" relative="1" as="geometry">
            <mxPoint as="offset" />
          </mxGeometry>
        </mxCell>
        <mxCell id="xf_oXh0y7SjaSMI43Iii-172" value="0..n" style="edgeLabel;html=1;align=center;verticalAlign=bottom;resizable=0;points=[];fontSize=12;" vertex="1" connectable="0" parent="xf_oXh0y7SjaSMI43Iii-120">
          <mxGeometry x="-0.9224" relative="1" as="geometry">
            <mxPoint as="offset" />
          </mxGeometry>
        </mxCell>
        <mxCell id="xf_oXh0y7SjaSMI43Iii-173" value="0..n" style="edgeLabel;html=1;align=center;verticalAlign=middle;resizable=0;points=[];fontSize=12;" vertex="1" connectable="0" parent="xf_oXh0y7SjaSMI43Iii-120">
          <mxGeometry x="0.9471" relative="1" as="geometry">
            <mxPoint x="15" as="offset" />
          </mxGeometry>
        </mxCell>
        <mxCell id="xf_oXh0y7SjaSMI43Iii-145" style="edgeStyle=orthogonalEdgeStyle;rounded=0;orthogonalLoop=1;jettySize=auto;html=1;entryX=1;entryY=0.25;entryDx=0;entryDy=0;fontSize=12;exitX=0.75;exitY=1;exitDx=0;exitDy=0;" edge="1" parent="1" source="xf_oXh0y7SjaSMI43Iii-15" target="xf_oXh0y7SjaSMI43Iii-140">
          <mxGeometry relative="1" as="geometry">
            <mxPoint x="660" y="360" as="sourcePoint" />
          </mxGeometry>
        </mxCell>
        <mxCell id="xf_oXh0y7SjaSMI43Iii-148" value="écrit" style="edgeLabel;html=1;align=center;verticalAlign=middle;resizable=0;points=[];fontSize=12;" vertex="1" connectable="0" parent="xf_oXh0y7SjaSMI43Iii-145">
          <mxGeometry x="-0.0128" relative="1" as="geometry">
            <mxPoint as="offset" />
          </mxGeometry>
        </mxCell>
        <mxCell id="xf_oXh0y7SjaSMI43Iii-176" value="1..n" style="edgeLabel;html=1;align=center;verticalAlign=middle;resizable=0;points=[];fontSize=12;" vertex="1" connectable="0" parent="xf_oXh0y7SjaSMI43Iii-145">
          <mxGeometry x="-0.9522" y="2" relative="1" as="geometry">
            <mxPoint x="13" as="offset" />
          </mxGeometry>
        </mxCell>
        <mxCell id="xf_oXh0y7SjaSMI43Iii-177" value="1" style="edgeLabel;html=1;align=center;verticalAlign=bottom;resizable=0;points=[];fontSize=12;" vertex="1" connectable="0" parent="xf_oXh0y7SjaSMI43Iii-145">
          <mxGeometry x="0.9299" relative="1" as="geometry">
            <mxPoint x="1" as="offset" />
          </mxGeometry>
        </mxCell>
        <mxCell id="xf_oXh0y7SjaSMI43Iii-15" value="Personne" style="swimlane;fontStyle=0;childLayout=stackLayout;horizontal=1;startSize=30;horizontalStack=0;resizeParent=1;resizeParentMax=0;resizeLast=0;collapsible=1;marginBottom=0;fontSize=14;" vertex="1" parent="1">
          <mxGeometry x="630" y="220" width="140" height="120" as="geometry">
            <mxRectangle x="630" y="220" width="100" height="30" as="alternateBounds" />
          </mxGeometry>
        </mxCell>
        <mxCell id="xf_oXh0y7SjaSMI43Iii-16" value="Nom" style="text;strokeColor=none;fillColor=none;align=left;verticalAlign=middle;spacingLeft=4;spacingRight=4;overflow=hidden;points=[[0,0.5],[1,0.5]];portConstraint=eastwest;rotatable=0;fontSize=14;" vertex="1" parent="xf_oXh0y7SjaSMI43Iii-15">
          <mxGeometry y="30" width="140" height="30" as="geometry" />
        </mxCell>
        <mxCell id="xf_oXh0y7SjaSMI43Iii-47" value="définition" style="text;strokeColor=none;fillColor=none;align=left;verticalAlign=middle;spacingLeft=4;spacingRight=4;overflow=hidden;points=[[0,0.5],[1,0.5]];portConstraint=eastwest;rotatable=0;fontSize=14;" vertex="1" parent="xf_oXh0y7SjaSMI43Iii-15">
          <mxGeometry y="60" width="140" height="30" as="geometry" />
        </mxCell>
        <mxCell id="xf_oXh0y7SjaSMI43Iii-46" value="genre" style="text;strokeColor=none;fillColor=none;align=left;verticalAlign=middle;spacingLeft=4;spacingRight=4;overflow=hidden;points=[[0,0.5],[1,0.5]];portConstraint=eastwest;rotatable=0;fontSize=14;" vertex="1" parent="xf_oXh0y7SjaSMI43Iii-15">
          <mxGeometry y="90" width="140" height="30" as="geometry" />
        </mxCell>
        <mxCell id="xf_oXh0y7SjaSMI43Iii-19" value="Occupation" style="swimlane;fontStyle=0;childLayout=stackLayout;horizontal=1;startSize=30;horizontalStack=0;resizeParent=1;resizeParentMax=0;resizeLast=0;collapsible=1;marginBottom=0;fontSize=14;" vertex="1" parent="1">
          <mxGeometry x="820" y="70" width="140" height="60" as="geometry" />
        </mxCell>
        <mxCell id="xf_oXh0y7SjaSMI43Iii-21" value="Date de début et de fin" style="text;strokeColor=none;fillColor=none;align=left;verticalAlign=middle;spacingLeft=4;spacingRight=4;overflow=hidden;points=[[0,0.5],[1,0.5]];portConstraint=eastwest;rotatable=0;fontSize=14;" vertex="1" parent="xf_oXh0y7SjaSMI43Iii-19">
          <mxGeometry y="30" width="140" height="30" as="geometry" />
        </mxCell>
        <mxCell id="xf_oXh0y7SjaSMI43Iii-102" style="edgeStyle=orthogonalEdgeStyle;rounded=0;orthogonalLoop=1;jettySize=auto;html=1;fontSize=12;exitX=0.5;exitY=1;exitDx=0;exitDy=0;entryX=0;entryY=0.222;entryDx=0;entryDy=0;entryPerimeter=0;" edge="1" parent="1" source="xf_oXh0y7SjaSMI43Iii-24" target="xf_oXh0y7SjaSMI43Iii-6">
          <mxGeometry relative="1" as="geometry">
            <mxPoint x="190" y="580" as="targetPoint" />
            <Array as="points">
              <mxPoint x="110" y="547" />
            </Array>
          </mxGeometry>
        </mxCell>
        <mxCell id="xf_oXh0y7SjaSMI43Iii-104" value="constituent" style="edgeLabel;html=1;align=center;verticalAlign=middle;resizable=0;points=[];fontSize=12;" vertex="1" connectable="0" parent="xf_oXh0y7SjaSMI43Iii-102">
          <mxGeometry x="-0.1279" y="2" relative="1" as="geometry">
            <mxPoint as="offset" />
          </mxGeometry>
        </mxCell>
        <mxCell id="xf_oXh0y7SjaSMI43Iii-105" value="&lt;font style=&quot;font-size: 10px;&quot;&gt;1&lt;/font&gt;..n" style="edgeLabel;html=1;align=center;verticalAlign=bottom;resizable=0;points=[];fontSize=12;" vertex="1" connectable="0" parent="xf_oXh0y7SjaSMI43Iii-102">
          <mxGeometry x="-0.9228" relative="1" as="geometry">
            <mxPoint x="10" y="12" as="offset" />
          </mxGeometry>
        </mxCell>
        <mxCell id="xf_oXh0y7SjaSMI43Iii-106" value="1" style="edgeLabel;html=1;align=center;verticalAlign=bottom;resizable=0;points=[];fontSize=10;" vertex="1" connectable="0" parent="xf_oXh0y7SjaSMI43Iii-102">
          <mxGeometry x="0.9327" y="-1" relative="1" as="geometry">
            <mxPoint x="-3" y="-1" as="offset" />
          </mxGeometry>
        </mxCell>
        <mxCell id="xf_oXh0y7SjaSMI43Iii-122" style="edgeStyle=orthogonalEdgeStyle;rounded=0;orthogonalLoop=1;jettySize=auto;html=1;entryX=0;entryY=0.5;entryDx=0;entryDy=0;fontSize=14;exitX=0.25;exitY=1;exitDx=0;exitDy=0;" edge="1" parent="1" source="xf_oXh0y7SjaSMI43Iii-24" target="xf_oXh0y7SjaSMI43Iii-108">
          <mxGeometry relative="1" as="geometry" />
        </mxCell>
        <mxCell id="xf_oXh0y7SjaSMI43Iii-133" value="&lt;font style=&quot;font-size: 10px;&quot;&gt;0..n&lt;/font&gt;" style="edgeLabel;html=1;align=center;verticalAlign=middle;resizable=0;points=[];fontSize=14;" vertex="1" connectable="0" parent="xf_oXh0y7SjaSMI43Iii-122">
          <mxGeometry x="-0.9606" y="-1" relative="1" as="geometry">
            <mxPoint x="-14" as="offset" />
          </mxGeometry>
        </mxCell>
        <mxCell id="xf_oXh0y7SjaSMI43Iii-134" value="1" style="edgeLabel;html=1;align=center;verticalAlign=bottom;resizable=0;points=[];fontSize=10;" vertex="1" connectable="0" parent="xf_oXh0y7SjaSMI43Iii-122">
          <mxGeometry x="0.9296" y="-1" relative="1" as="geometry">
            <mxPoint as="offset" />
          </mxGeometry>
        </mxCell>
        <mxCell id="xf_oXh0y7SjaSMI43Iii-135" value="&lt;div&gt;&lt;font style=&quot;font-size: 12px;&quot;&gt;est &lt;br&gt;&lt;/font&gt;&lt;/div&gt;&lt;div&gt;&lt;font style=&quot;font-size: 12px;&quot;&gt;conservé à&lt;/font&gt;&lt;/div&gt;" style="edgeLabel;html=1;align=center;verticalAlign=middle;resizable=0;points=[];fontSize=10;" vertex="1" connectable="0" parent="xf_oXh0y7SjaSMI43Iii-122">
          <mxGeometry x="-0.2673" relative="1" as="geometry">
            <mxPoint as="offset" />
          </mxGeometry>
        </mxCell>
        <mxCell id="xf_oXh0y7SjaSMI43Iii-24" value="Monnaies" style="swimlane;fontStyle=0;childLayout=stackLayout;horizontal=1;startSize=30;horizontalStack=0;resizeParent=1;resizeParentMax=0;resizeLast=0;collapsible=1;marginBottom=0;fontSize=14;" vertex="1" parent="1">
          <mxGeometry x="40" y="240" width="140" height="180" as="geometry">
            <mxRectangle x="40" y="240" width="100" height="30" as="alternateBounds" />
          </mxGeometry>
        </mxCell>
        <mxCell id="xf_oXh0y7SjaSMI43Iii-25" value="Inscription" style="text;strokeColor=none;fillColor=none;align=left;verticalAlign=middle;spacingLeft=4;spacingRight=4;overflow=hidden;points=[[0,0.5],[1,0.5]];portConstraint=eastwest;rotatable=0;fontSize=14;" vertex="1" parent="xf_oXh0y7SjaSMI43Iii-24">
          <mxGeometry y="30" width="140" height="30" as="geometry" />
        </mxCell>
        <mxCell id="xf_oXh0y7SjaSMI43Iii-26" value="Décoration" style="text;strokeColor=none;fillColor=none;align=left;verticalAlign=middle;spacingLeft=4;spacingRight=4;overflow=hidden;points=[[0,0.5],[1,0.5]];portConstraint=eastwest;rotatable=0;fontSize=14;" vertex="1" parent="xf_oXh0y7SjaSMI43Iii-24">
          <mxGeometry y="60" width="140" height="30" as="geometry" />
        </mxCell>
        <mxCell id="xf_oXh0y7SjaSMI43Iii-27" value="Propriétés physique" style="text;strokeColor=none;fillColor=none;align=left;verticalAlign=middle;spacingLeft=4;spacingRight=4;overflow=hidden;points=[[0,0.5],[1,0.5]];portConstraint=eastwest;rotatable=0;fontSize=14;" vertex="1" parent="xf_oXh0y7SjaSMI43Iii-24">
          <mxGeometry y="90" width="140" height="30" as="geometry" />
        </mxCell>
        <mxCell id="xf_oXh0y7SjaSMI43Iii-40" value="production" style="text;strokeColor=none;fillColor=none;align=left;verticalAlign=middle;spacingLeft=4;spacingRight=4;overflow=hidden;points=[[0,0.5],[1,0.5]];portConstraint=eastwest;rotatable=0;fontSize=14;" vertex="1" parent="xf_oXh0y7SjaSMI43Iii-24">
          <mxGeometry y="120" width="140" height="30" as="geometry" />
        </mxCell>
        <mxCell id="xf_oXh0y7SjaSMI43Iii-41" value="défaut" style="text;strokeColor=none;fillColor=none;align=left;verticalAlign=middle;spacingLeft=4;spacingRight=4;overflow=hidden;points=[[0,0.5],[1,0.5]];portConstraint=eastwest;rotatable=0;fontSize=14;" vertex="1" parent="xf_oXh0y7SjaSMI43Iii-24">
          <mxGeometry y="150" width="140" height="30" as="geometry" />
        </mxCell>
        <mxCell id="xf_oXh0y7SjaSMI43Iii-60" style="edgeStyle=orthogonalEdgeStyle;rounded=0;orthogonalLoop=1;jettySize=auto;html=1;entryX=0.5;entryY=0;entryDx=0;entryDy=0;fontSize=10;" edge="1" parent="1" source="xf_oXh0y7SjaSMI43Iii-42" target="xf_oXh0y7SjaSMI43Iii-24">
          <mxGeometry relative="1" as="geometry" />
        </mxCell>
        <mxCell id="xf_oXh0y7SjaSMI43Iii-61" value="1" style="edgeLabel;html=1;align=center;verticalAlign=middle;resizable=0;points=[];fontSize=10;labelBackgroundColor=none;" vertex="1" connectable="0" parent="xf_oXh0y7SjaSMI43Iii-60">
          <mxGeometry x="-0.8935" relative="1" as="geometry">
            <mxPoint x="10" y="4" as="offset" />
          </mxGeometry>
        </mxCell>
        <mxCell id="xf_oXh0y7SjaSMI43Iii-62" value="1..n" style="edgeLabel;html=1;align=center;verticalAlign=middle;resizable=0;points=[];fontSize=10;labelBackgroundColor=default;" vertex="1" connectable="0" parent="xf_oXh0y7SjaSMI43Iii-60">
          <mxGeometry x="0.8831" relative="1" as="geometry">
            <mxPoint x="11" y="-3" as="offset" />
          </mxGeometry>
        </mxCell>
        <mxCell id="xf_oXh0y7SjaSMI43Iii-63" value="émet" style="edgeLabel;html=1;align=center;verticalAlign=middle;resizable=0;points=[];fontSize=12;" vertex="1" connectable="0" parent="xf_oXh0y7SjaSMI43Iii-60">
          <mxGeometry x="-0.1143" relative="1" as="geometry">
            <mxPoint as="offset" />
          </mxGeometry>
        </mxCell>
        <mxCell id="xf_oXh0y7SjaSMI43Iii-78" style="edgeStyle=orthogonalEdgeStyle;rounded=0;orthogonalLoop=1;jettySize=auto;html=1;fontSize=10;entryX=0.116;entryY=-0.021;entryDx=0;entryDy=0;entryPerimeter=0;" edge="1" parent="1" source="xf_oXh0y7SjaSMI43Iii-42" target="xf_oXh0y7SjaSMI43Iii-10">
          <mxGeometry relative="1" as="geometry" />
        </mxCell>
        <mxCell id="xf_oXh0y7SjaSMI43Iii-79" value="1" style="edgeLabel;html=1;align=center;verticalAlign=bottom;resizable=0;points=[];fontSize=10;" vertex="1" connectable="0" parent="xf_oXh0y7SjaSMI43Iii-78">
          <mxGeometry x="-0.9478" y="2" relative="1" as="geometry">
            <mxPoint as="offset" />
          </mxGeometry>
        </mxCell>
        <mxCell id="xf_oXh0y7SjaSMI43Iii-80" value="1..n" style="edgeLabel;html=1;align=center;verticalAlign=middle;resizable=0;points=[];fontSize=10;" vertex="1" connectable="0" parent="xf_oXh0y7SjaSMI43Iii-78">
          <mxGeometry x="0.917" y="1" relative="1" as="geometry">
            <mxPoint x="13" y="6" as="offset" />
          </mxGeometry>
        </mxCell>
        <mxCell id="xf_oXh0y7SjaSMI43Iii-81" value="&lt;div style=&quot;font-size: 12px;&quot;&gt;&lt;font style=&quot;font-size: 12px;&quot;&gt;&lt;font style=&quot;font-size: 12px;&quot;&gt;émet&lt;/font&gt;&lt;/font&gt;&lt;/div&gt;&lt;div style=&quot;font-size: 12px;&quot;&gt;&lt;font style=&quot;font-size: 12px;&quot;&gt;&lt;font style=&quot;font-size: 12px;&quot;&gt;depuis&lt;/font&gt;&lt;/font&gt;&lt;/div&gt;" style="edgeLabel;html=1;align=center;verticalAlign=middle;resizable=0;points=[];fontSize=12;" vertex="1" connectable="0" parent="xf_oXh0y7SjaSMI43Iii-78">
          <mxGeometry x="0.1114" y="-1" relative="1" as="geometry">
            <mxPoint x="5" y="9" as="offset" />
          </mxGeometry>
        </mxCell>
        <mxCell id="xf_oXh0y7SjaSMI43Iii-42" value="émetteur" style="swimlane;fontStyle=0;childLayout=stackLayout;horizontal=1;startSize=30;horizontalStack=0;resizeParent=1;resizeParentMax=0;resizeLast=0;collapsible=1;marginBottom=0;fontSize=14;html=0;" vertex="1" parent="1">
          <mxGeometry x="40" y="40" width="140" height="90" as="geometry" />
        </mxCell>
        <mxCell id="xf_oXh0y7SjaSMI43Iii-43" value="Nom" style="text;strokeColor=none;fillColor=none;align=left;verticalAlign=middle;spacingLeft=4;spacingRight=4;overflow=hidden;points=[[0,0.5],[1,0.5]];portConstraint=eastwest;rotatable=0;fontSize=14;html=0;" vertex="1" parent="xf_oXh0y7SjaSMI43Iii-42">
          <mxGeometry y="30" width="140" height="30" as="geometry" />
        </mxCell>
        <mxCell id="xf_oXh0y7SjaSMI43Iii-52" value="date de début et fin d&#39;émission" style="text;strokeColor=none;fillColor=none;align=left;verticalAlign=middle;spacingLeft=4;spacingRight=4;overflow=hidden;points=[[0,0.5],[1,0.5]];portConstraint=eastwest;rotatable=0;fontSize=14;html=0;" vertex="1" parent="xf_oXh0y7SjaSMI43Iii-42">
          <mxGeometry y="60" width="140" height="30" as="geometry" />
        </mxCell>
        <mxCell id="xf_oXh0y7SjaSMI43Iii-82" style="edgeStyle=orthogonalEdgeStyle;rounded=0;orthogonalLoop=1;jettySize=auto;html=1;entryX=0.5;entryY=0;entryDx=0;entryDy=0;fontSize=12;" edge="1" parent="1" source="xf_oXh0y7SjaSMI43Iii-48" target="xf_oXh0y7SjaSMI43Iii-42">
          <mxGeometry relative="1" as="geometry" />
        </mxCell>
        <mxCell id="xf_oXh0y7SjaSMI43Iii-83" value="nomme " style="edgeLabel;html=1;align=center;verticalAlign=middle;resizable=0;points=[];fontSize=12;" vertex="1" connectable="0" parent="xf_oXh0y7SjaSMI43Iii-82">
          <mxGeometry x="-0.1537" relative="1" as="geometry">
            <mxPoint as="offset" />
          </mxGeometry>
        </mxCell>
        <mxCell id="xf_oXh0y7SjaSMI43Iii-84" value="1..n" style="edgeLabel;html=1;align=center;verticalAlign=middle;resizable=0;points=[];fontSize=10;" vertex="1" connectable="0" parent="xf_oXh0y7SjaSMI43Iii-82">
          <mxGeometry x="-0.8698" y="-1" relative="1" as="geometry">
            <mxPoint x="11" as="offset" />
          </mxGeometry>
        </mxCell>
        <mxCell id="xf_oXh0y7SjaSMI43Iii-85" value="1" style="edgeLabel;html=1;align=center;verticalAlign=middle;resizable=0;points=[];fontSize=10;" vertex="1" connectable="0" parent="xf_oXh0y7SjaSMI43Iii-82">
          <mxGeometry x="0.7599" y="1" relative="1" as="geometry">
            <mxPoint x="9" y="4" as="offset" />
          </mxGeometry>
        </mxCell>
        <mxCell id="xf_oXh0y7SjaSMI43Iii-86" style="edgeStyle=orthogonalEdgeStyle;rounded=0;orthogonalLoop=1;jettySize=auto;html=1;entryX=0.5;entryY=0;entryDx=0;entryDy=0;fontSize=10;" edge="1" parent="1" source="xf_oXh0y7SjaSMI43Iii-48" target="xf_oXh0y7SjaSMI43Iii-10">
          <mxGeometry relative="1" as="geometry" />
        </mxCell>
        <mxCell id="xf_oXh0y7SjaSMI43Iii-88" value="0..n" style="edgeLabel;html=1;align=center;verticalAlign=bottom;resizable=0;points=[];fontSize=10;" vertex="1" connectable="0" parent="xf_oXh0y7SjaSMI43Iii-86">
          <mxGeometry x="-0.9728" y="-1" relative="1" as="geometry">
            <mxPoint as="offset" />
          </mxGeometry>
        </mxCell>
        <mxCell id="xf_oXh0y7SjaSMI43Iii-89" value="1" style="edgeLabel;html=1;align=center;verticalAlign=middle;resizable=0;points=[];fontSize=10;" vertex="1" connectable="0" parent="xf_oXh0y7SjaSMI43Iii-86">
          <mxGeometry x="0.9562" relative="1" as="geometry">
            <mxPoint x="10" y="3" as="offset" />
          </mxGeometry>
        </mxCell>
        <mxCell id="xf_oXh0y7SjaSMI43Iii-90" value="&lt;div style=&quot;font-size: 12px;&quot;&gt;&lt;font style=&quot;font-size: 12px;&quot;&gt;a pour&lt;/font&gt;&lt;/div&gt;&lt;div style=&quot;font-size: 12px;&quot;&gt;&lt;font style=&quot;font-size: 12px;&quot;&gt;territoire&lt;/font&gt;&lt;/div&gt;" style="edgeLabel;html=1;align=center;verticalAlign=middle;resizable=0;points=[];fontSize=10;" vertex="1" connectable="0" parent="xf_oXh0y7SjaSMI43Iii-86">
          <mxGeometry x="-0.1989" y="-1" relative="1" as="geometry">
            <mxPoint as="offset" />
          </mxGeometry>
        </mxCell>
        <mxCell id="xf_oXh0y7SjaSMI43Iii-48" value="Entité politique" style="swimlane;fontStyle=0;childLayout=stackLayout;horizontal=1;startSize=30;horizontalStack=0;resizeParent=1;resizeParentMax=0;resizeLast=0;collapsible=1;marginBottom=0;fontSize=14;html=0;" vertex="1" parent="1">
          <mxGeometry x="40" y="-200" width="140" height="120" as="geometry" />
        </mxCell>
        <mxCell id="xf_oXh0y7SjaSMI43Iii-49" value="nom" style="text;strokeColor=none;fillColor=none;align=left;verticalAlign=middle;spacingLeft=4;spacingRight=4;overflow=hidden;points=[[0,0.5],[1,0.5]];portConstraint=eastwest;rotatable=0;fontSize=14;html=0;" vertex="1" parent="xf_oXh0y7SjaSMI43Iii-48">
          <mxGeometry y="30" width="140" height="30" as="geometry" />
        </mxCell>
        <mxCell id="xf_oXh0y7SjaSMI43Iii-50" value="type de gouvernement" style="text;strokeColor=none;fillColor=none;align=left;verticalAlign=middle;spacingLeft=4;spacingRight=4;overflow=hidden;points=[[0,0.5],[1,0.5]];portConstraint=eastwest;rotatable=0;fontSize=14;html=0;" vertex="1" parent="xf_oXh0y7SjaSMI43Iii-48">
          <mxGeometry y="60" width="140" height="30" as="geometry" />
        </mxCell>
        <mxCell id="xf_oXh0y7SjaSMI43Iii-51" value="date de début et fin" style="text;strokeColor=none;fillColor=none;align=left;verticalAlign=middle;spacingLeft=4;spacingRight=4;overflow=hidden;points=[[0,0.5],[1,0.5]];portConstraint=eastwest;rotatable=0;fontSize=14;html=0;" vertex="1" parent="xf_oXh0y7SjaSMI43Iii-48">
          <mxGeometry y="90" width="140" height="30" as="geometry" />
        </mxCell>
        <mxCell id="xf_oXh0y7SjaSMI43Iii-53" style="edgeStyle=orthogonalEdgeStyle;rounded=0;orthogonalLoop=1;jettySize=auto;html=1;exitX=1;exitY=0.5;exitDx=0;exitDy=0;fontSize=14;" edge="1" parent="1" source="xf_oXh0y7SjaSMI43Iii-16" target="xf_oXh0y7SjaSMI43Iii-19">
          <mxGeometry relative="1" as="geometry">
            <Array as="points">
              <mxPoint x="840" y="265" />
            </Array>
          </mxGeometry>
        </mxCell>
        <mxCell id="xf_oXh0y7SjaSMI43Iii-54" value="&lt;div&gt;a pour &lt;br&gt;&lt;/div&gt;&lt;div&gt;occupation&lt;/div&gt;" style="edgeLabel;html=1;align=center;verticalAlign=middle;resizable=0;points=[];fontSize=14;" vertex="1" connectable="0" parent="xf_oXh0y7SjaSMI43Iii-53">
          <mxGeometry x="0.1625" y="2" relative="1" as="geometry">
            <mxPoint x="7" as="offset" />
          </mxGeometry>
        </mxCell>
        <mxCell id="xf_oXh0y7SjaSMI43Iii-56" value="1..n" style="edgeLabel;html=1;align=center;verticalAlign=bottom;resizable=0;points=[];fontSize=10;" vertex="1" connectable="0" parent="xf_oXh0y7SjaSMI43Iii-53">
          <mxGeometry x="0.9" relative="1" as="geometry">
            <mxPoint x="10" y="14" as="offset" />
          </mxGeometry>
        </mxCell>
        <mxCell id="xf_oXh0y7SjaSMI43Iii-57" value="1..n" style="edgeLabel;html=1;align=center;verticalAlign=bottom;resizable=0;points=[];fontSize=10;" vertex="1" connectable="0" parent="xf_oXh0y7SjaSMI43Iii-53">
          <mxGeometry x="-0.9582" y="-1" relative="1" as="geometry">
            <mxPoint x="6" as="offset" />
          </mxGeometry>
        </mxCell>
        <mxCell id="xf_oXh0y7SjaSMI43Iii-119" style="edgeStyle=orthogonalEdgeStyle;rounded=0;orthogonalLoop=1;jettySize=auto;html=1;fontSize=14;" edge="1" parent="1" source="xf_oXh0y7SjaSMI43Iii-107" target="xf_oXh0y7SjaSMI43Iii-10">
          <mxGeometry relative="1" as="geometry">
            <mxPoint x="440" y="370" as="targetPoint" />
            <Array as="points">
              <mxPoint x="480" y="350" />
            </Array>
          </mxGeometry>
        </mxCell>
        <mxCell id="xf_oXh0y7SjaSMI43Iii-158" value="&lt;div&gt;se &lt;br&gt;&lt;/div&gt;&lt;div&gt;trouve à&lt;br&gt;&lt;/div&gt;" style="edgeLabel;html=1;align=center;verticalAlign=middle;resizable=0;points=[];fontSize=12;" vertex="1" connectable="0" parent="xf_oXh0y7SjaSMI43Iii-119">
          <mxGeometry x="0.1894" y="1" relative="1" as="geometry">
            <mxPoint as="offset" />
          </mxGeometry>
        </mxCell>
        <mxCell id="xf_oXh0y7SjaSMI43Iii-168" value="0..n" style="edgeLabel;html=1;align=center;verticalAlign=middle;resizable=0;points=[];fontSize=12;" vertex="1" connectable="0" parent="xf_oXh0y7SjaSMI43Iii-119">
          <mxGeometry x="-0.9026" y="-2" relative="1" as="geometry">
            <mxPoint x="8" y="7" as="offset" />
          </mxGeometry>
        </mxCell>
        <mxCell id="xf_oXh0y7SjaSMI43Iii-169" value="1" style="edgeLabel;html=1;align=center;verticalAlign=bottom;resizable=0;points=[];fontSize=12;" vertex="1" connectable="0" parent="xf_oXh0y7SjaSMI43Iii-119">
          <mxGeometry x="0.9196" relative="1" as="geometry">
            <mxPoint as="offset" />
          </mxGeometry>
        </mxCell>
        <mxCell id="xf_oXh0y7SjaSMI43Iii-144" style="edgeStyle=orthogonalEdgeStyle;rounded=0;orthogonalLoop=1;jettySize=auto;html=1;entryX=0.5;entryY=0;entryDx=0;entryDy=0;fontSize=12;" edge="1" parent="1" source="xf_oXh0y7SjaSMI43Iii-107" target="xf_oXh0y7SjaSMI43Iii-140">
          <mxGeometry relative="1" as="geometry" />
        </mxCell>
        <mxCell id="xf_oXh0y7SjaSMI43Iii-147" value="publie" style="edgeLabel;html=1;align=center;verticalAlign=middle;resizable=0;points=[];fontSize=12;" vertex="1" connectable="0" parent="xf_oXh0y7SjaSMI43Iii-144">
          <mxGeometry x="-0.1733" y="-1" relative="1" as="geometry">
            <mxPoint as="offset" />
          </mxGeometry>
        </mxCell>
        <mxCell id="xf_oXh0y7SjaSMI43Iii-165" value="0..1" style="edgeLabel;html=1;align=center;verticalAlign=middle;resizable=0;points=[];fontSize=12;" vertex="1" connectable="0" parent="xf_oXh0y7SjaSMI43Iii-144">
          <mxGeometry x="-0.8106" relative="1" as="geometry">
            <mxPoint x="10" as="offset" />
          </mxGeometry>
        </mxCell>
        <mxCell id="xf_oXh0y7SjaSMI43Iii-166" value="1" style="edgeLabel;html=1;align=center;verticalAlign=middle;resizable=0;points=[];fontSize=12;" vertex="1" connectable="0" parent="xf_oXh0y7SjaSMI43Iii-144">
          <mxGeometry x="0.8458" relative="1" as="geometry">
            <mxPoint x="10" as="offset" />
          </mxGeometry>
        </mxCell>
        <mxCell id="xf_oXh0y7SjaSMI43Iii-107" value="Organisation" style="swimlane;fontStyle=0;childLayout=stackLayout;horizontal=1;startSize=30;horizontalStack=0;resizeParent=1;resizeParentMax=0;resizeLast=0;collapsible=1;marginBottom=0;labelBackgroundColor=default;fontSize=14;html=0;" vertex="1" parent="1">
          <mxGeometry x="470" y="638" width="140" height="90" as="geometry" />
        </mxCell>
        <mxCell id="xf_oXh0y7SjaSMI43Iii-108" value="Nom" style="text;strokeColor=none;fillColor=none;align=left;verticalAlign=middle;spacingLeft=4;spacingRight=4;overflow=hidden;points=[[0,0.5],[1,0.5]];portConstraint=eastwest;rotatable=0;labelBackgroundColor=default;fontSize=14;html=0;" vertex="1" parent="xf_oXh0y7SjaSMI43Iii-107">
          <mxGeometry y="30" width="140" height="30" as="geometry" />
        </mxCell>
        <mxCell id="xf_oXh0y7SjaSMI43Iii-109" value="definition" style="text;strokeColor=none;fillColor=none;align=left;verticalAlign=middle;spacingLeft=4;spacingRight=4;overflow=hidden;points=[[0,0.5],[1,0.5]];portConstraint=eastwest;rotatable=0;labelBackgroundColor=default;fontSize=14;html=0;" vertex="1" parent="xf_oXh0y7SjaSMI43Iii-107">
          <mxGeometry y="60" width="140" height="30" as="geometry" />
        </mxCell>
        <mxCell id="xf_oXh0y7SjaSMI43Iii-130" style="edgeStyle=orthogonalEdgeStyle;rounded=0;orthogonalLoop=1;jettySize=auto;html=1;entryX=0.75;entryY=0;entryDx=0;entryDy=0;fontSize=14;" edge="1" parent="1" source="xf_oXh0y7SjaSMI43Iii-123" target="xf_oXh0y7SjaSMI43Iii-15">
          <mxGeometry relative="1" as="geometry" />
        </mxCell>
        <mxCell id="xf_oXh0y7SjaSMI43Iii-150" value="naissance de" style="edgeLabel;html=1;align=center;verticalAlign=middle;resizable=0;points=[];fontSize=12;" vertex="1" connectable="0" parent="xf_oXh0y7SjaSMI43Iii-130">
          <mxGeometry x="-0.2198" y="1" relative="1" as="geometry">
            <mxPoint as="offset" />
          </mxGeometry>
        </mxCell>
        <mxCell id="xf_oXh0y7SjaSMI43Iii-155" value="1" style="edgeLabel;html=1;align=center;verticalAlign=bottom;resizable=0;points=[];fontSize=12;" vertex="1" connectable="0" parent="xf_oXh0y7SjaSMI43Iii-130">
          <mxGeometry x="-0.888" y="-2" relative="1" as="geometry">
            <mxPoint as="offset" />
          </mxGeometry>
        </mxCell>
        <mxCell id="xf_oXh0y7SjaSMI43Iii-156" value="1..n" style="edgeLabel;html=1;align=center;verticalAlign=middle;resizable=0;points=[];fontSize=12;" vertex="1" connectable="0" parent="xf_oXh0y7SjaSMI43Iii-130">
          <mxGeometry x="0.896" y="1" relative="1" as="geometry">
            <mxPoint x="14" as="offset" />
          </mxGeometry>
        </mxCell>
        <mxCell id="xf_oXh0y7SjaSMI43Iii-132" style="edgeStyle=orthogonalEdgeStyle;rounded=0;orthogonalLoop=1;jettySize=auto;html=1;entryX=0.786;entryY=0;entryDx=0;entryDy=0;entryPerimeter=0;fontSize=14;" edge="1" parent="1" source="xf_oXh0y7SjaSMI43Iii-123" target="xf_oXh0y7SjaSMI43Iii-10">
          <mxGeometry relative="1" as="geometry" />
        </mxCell>
        <mxCell id="xf_oXh0y7SjaSMI43Iii-151" value="né à" style="edgeLabel;html=1;align=center;verticalAlign=middle;resizable=0;points=[];fontSize=12;" vertex="1" connectable="0" parent="xf_oXh0y7SjaSMI43Iii-132">
          <mxGeometry x="-0.001" relative="1" as="geometry">
            <mxPoint as="offset" />
          </mxGeometry>
        </mxCell>
        <mxCell id="xf_oXh0y7SjaSMI43Iii-170" value="0..n" style="edgeLabel;html=1;align=center;verticalAlign=bottom;resizable=0;points=[];fontSize=12;" vertex="1" connectable="0" parent="xf_oXh0y7SjaSMI43Iii-132">
          <mxGeometry x="-0.8913" y="2" relative="1" as="geometry">
            <mxPoint as="offset" />
          </mxGeometry>
        </mxCell>
        <mxCell id="xf_oXh0y7SjaSMI43Iii-171" value="1" style="edgeLabel;html=1;align=center;verticalAlign=middle;resizable=0;points=[];fontSize=12;" vertex="1" connectable="0" parent="xf_oXh0y7SjaSMI43Iii-132">
          <mxGeometry x="0.8657" y="-1" relative="1" as="geometry">
            <mxPoint x="11" y="4" as="offset" />
          </mxGeometry>
        </mxCell>
        <mxCell id="xf_oXh0y7SjaSMI43Iii-123" value="naissance" style="swimlane;fontStyle=0;childLayout=stackLayout;horizontal=1;startSize=30;horizontalStack=0;resizeParent=1;resizeParentMax=0;resizeLast=0;collapsible=1;marginBottom=0;labelBackgroundColor=default;fontSize=14;html=0;" vertex="1" parent="1">
          <mxGeometry x="480" y="55" width="140" height="60" as="geometry">
            <mxRectangle x="480" y="55" width="100" height="30" as="alternateBounds" />
          </mxGeometry>
        </mxCell>
        <mxCell id="xf_oXh0y7SjaSMI43Iii-124" value="date de début et de fin" style="text;strokeColor=none;fillColor=none;align=left;verticalAlign=middle;spacingLeft=4;spacingRight=4;overflow=hidden;points=[[0,0.5],[1,0.5]];portConstraint=eastwest;rotatable=0;labelBackgroundColor=default;fontSize=14;html=0;" vertex="1" parent="xf_oXh0y7SjaSMI43Iii-123">
          <mxGeometry y="30" width="140" height="30" as="geometry" />
        </mxCell>
        <mxCell id="xf_oXh0y7SjaSMI43Iii-146" style="edgeStyle=orthogonalEdgeStyle;rounded=0;orthogonalLoop=1;jettySize=auto;html=1;fontSize=12;entryX=0;entryY=0.5;entryDx=0;entryDy=0;" edge="1" parent="1" source="xf_oXh0y7SjaSMI43Iii-140" target="xf_oXh0y7SjaSMI43Iii-24">
          <mxGeometry relative="1" as="geometry">
            <mxPoint x="60" y="430" as="targetPoint" />
            <Array as="points">
              <mxPoint x="20" y="890" />
              <mxPoint x="20" y="330" />
            </Array>
          </mxGeometry>
        </mxCell>
        <mxCell id="xf_oXh0y7SjaSMI43Iii-149" value="mentionne" style="edgeLabel;html=1;align=center;verticalAlign=middle;resizable=0;points=[];fontSize=12;" vertex="1" connectable="0" parent="xf_oXh0y7SjaSMI43Iii-146">
          <mxGeometry x="-0.167" relative="1" as="geometry">
            <mxPoint x="98" as="offset" />
          </mxGeometry>
        </mxCell>
        <mxCell id="xf_oXh0y7SjaSMI43Iii-162" value="1..n" style="edgeLabel;html=1;align=center;verticalAlign=bottom;resizable=0;points=[];fontSize=12;" vertex="1" connectable="0" parent="xf_oXh0y7SjaSMI43Iii-146">
          <mxGeometry x="-0.9784" y="1" relative="1" as="geometry">
            <mxPoint as="offset" />
          </mxGeometry>
        </mxCell>
        <mxCell id="xf_oXh0y7SjaSMI43Iii-164" value="1" style="edgeLabel;html=1;align=center;verticalAlign=bottom;resizable=0;points=[];fontSize=12;" vertex="1" connectable="0" parent="xf_oXh0y7SjaSMI43Iii-146">
          <mxGeometry x="0.9753" y="1" relative="1" as="geometry">
            <mxPoint as="offset" />
          </mxGeometry>
        </mxCell>
        <mxCell id="xf_oXh0y7SjaSMI43Iii-154" style="edgeStyle=orthogonalEdgeStyle;rounded=0;orthogonalLoop=1;jettySize=auto;html=1;fontSize=12;" edge="1" parent="1" source="xf_oXh0y7SjaSMI43Iii-140" target="xf_oXh0y7SjaSMI43Iii-10">
          <mxGeometry relative="1" as="geometry">
            <Array as="points">
              <mxPoint x="410" y="840" />
            </Array>
          </mxGeometry>
        </mxCell>
        <mxCell id="xf_oXh0y7SjaSMI43Iii-157" value="&lt;div&gt;est &lt;br&gt;&lt;/div&gt;&lt;div&gt;publié à&lt;br&gt;&lt;/div&gt;" style="edgeLabel;html=1;align=center;verticalAlign=middle;resizable=0;points=[];fontSize=12;" vertex="1" connectable="0" parent="xf_oXh0y7SjaSMI43Iii-154">
          <mxGeometry x="0.4574" relative="1" as="geometry">
            <mxPoint as="offset" />
          </mxGeometry>
        </mxCell>
        <mxCell id="xf_oXh0y7SjaSMI43Iii-163" value="1" style="edgeLabel;html=1;align=center;verticalAlign=bottom;resizable=0;points=[];fontSize=12;" vertex="1" connectable="0" parent="xf_oXh0y7SjaSMI43Iii-154">
          <mxGeometry x="-0.9568" y="2" relative="1" as="geometry">
            <mxPoint as="offset" />
          </mxGeometry>
        </mxCell>
        <mxCell id="xf_oXh0y7SjaSMI43Iii-167" value="0..1" style="edgeLabel;html=1;align=center;verticalAlign=middle;resizable=0;points=[];fontSize=12;" vertex="1" connectable="0" parent="xf_oXh0y7SjaSMI43Iii-154">
          <mxGeometry x="0.9698" y="2" relative="1" as="geometry">
            <mxPoint x="17" as="offset" />
          </mxGeometry>
        </mxCell>
        <mxCell id="xf_oXh0y7SjaSMI43Iii-140" value="ouvrage" style="swimlane;fontStyle=0;childLayout=stackLayout;horizontal=1;startSize=30;horizontalStack=0;resizeParent=1;resizeParentMax=0;resizeLast=0;collapsible=1;marginBottom=0;labelBackgroundColor=default;fontSize=12;html=0;" vertex="1" parent="1">
          <mxGeometry x="470" y="820" width="140" height="90" as="geometry" />
        </mxCell>
        <mxCell id="xf_oXh0y7SjaSMI43Iii-141" value="nom" style="text;strokeColor=none;fillColor=none;align=left;verticalAlign=middle;spacingLeft=4;spacingRight=4;overflow=hidden;points=[[0,0.5],[1,0.5]];portConstraint=eastwest;rotatable=0;labelBackgroundColor=default;fontSize=12;html=0;" vertex="1" parent="xf_oXh0y7SjaSMI43Iii-140">
          <mxGeometry y="30" width="140" height="30" as="geometry" />
        </mxCell>
        <mxCell id="xf_oXh0y7SjaSMI43Iii-152" value="année de parution" style="text;strokeColor=none;fillColor=none;align=left;verticalAlign=middle;spacingLeft=4;spacingRight=4;overflow=hidden;points=[[0,0.5],[1,0.5]];portConstraint=eastwest;rotatable=0;labelBackgroundColor=default;fontSize=12;html=0;" vertex="1" parent="xf_oXh0y7SjaSMI43Iii-140">
          <mxGeometry y="60" width="140" height="30" as="geometry" />
        </mxCell>
      </root>
    </mxGraphModel>
  </diagram>
</mxfile>
